<mxfile host="app.diagrams.net" modified="2023-12-30T17:30:52.246Z" agent="Mozilla/5.0 (X11; Linux x86_64) AppleWebKit/537.36 (KHTML, like Gecko) Chrome/120.0.0.0 Safari/537.36" etag="dlMi0MrnRdKQkDCnTUbW" version="22.1.16" type="github" pages="2">
  <diagram id="HzzkXtRiBOfBRwnQmHLX" name="Server Arch">
    <mxGraphModel dx="956" dy="511" grid="1" gridSize="10" guides="1" tooltips="1" connect="1" arrows="1" fold="1" page="1" pageScale="1" pageWidth="850" pageHeight="1100" math="0" shadow="0">
      <root>
        <mxCell id="0" />
        <mxCell id="1" parent="0" />
        <mxCell id="msXrQutdEgU7XMJ9eGrg-1" value="" style="shape=image;html=1;verticalAlign=top;verticalLabelPosition=bottom;labelBackgroundColor=#ffffff;imageAspect=0;aspect=fixed;image=https://cdn1.iconfinder.com/data/icons/seo-and-web-development-6/32/Web_website_favorite_site_star-128.png" vertex="1" parent="1">
          <mxGeometry x="135" y="37" width="110" height="110" as="geometry" />
        </mxCell>
        <mxCell id="msXrQutdEgU7XMJ9eGrg-2" value="" style="shape=image;html=1;verticalAlign=top;verticalLabelPosition=bottom;labelBackgroundColor=#ffffff;imageAspect=0;aspect=fixed;image=https://cdn1.iconfinder.com/data/icons/seo-and-web-development-6/32/Web_website_favorite_site_star-128.png" vertex="1" parent="1">
          <mxGeometry x="16" y="36" width="110" height="110" as="geometry" />
        </mxCell>
        <mxCell id="msXrQutdEgU7XMJ9eGrg-3" value="Shopping Cart App" style="text;html=1;align=center;verticalAlign=middle;resizable=0;points=[];autosize=1;strokeColor=none;fillColor=none;" vertex="1" parent="1">
          <mxGeometry x="127" y="131" width="120" height="30" as="geometry" />
        </mxCell>
        <mxCell id="msXrQutdEgU7XMJ9eGrg-4" value="Product Listing App" style="text;html=1;align=center;verticalAlign=middle;resizable=0;points=[];autosize=1;strokeColor=none;fillColor=none;" vertex="1" parent="1">
          <mxGeometry x="4" y="130" width="130" height="30" as="geometry" />
        </mxCell>
        <mxCell id="msXrQutdEgU7XMJ9eGrg-5" value="" style="rounded=0;whiteSpace=wrap;html=1;" vertex="1" parent="1">
          <mxGeometry x="290" y="6" width="270" height="170" as="geometry" />
        </mxCell>
        <mxCell id="msXrQutdEgU7XMJ9eGrg-8" value="Product Listing" style="rounded=0;whiteSpace=wrap;html=1;" vertex="1" parent="1">
          <mxGeometry x="310" y="87" width="100" height="50" as="geometry" />
        </mxCell>
        <mxCell id="msXrQutdEgU7XMJ9eGrg-9" value="Shopping Cart" style="rounded=0;whiteSpace=wrap;html=1;" vertex="1" parent="1">
          <mxGeometry x="440" y="87" width="100" height="50" as="geometry" />
        </mxCell>
        <mxCell id="msXrQutdEgU7XMJ9eGrg-10" value="Monolithic Single Page Application" style="text;html=1;align=center;verticalAlign=middle;resizable=0;points=[];autosize=1;strokeColor=none;fillColor=none;" vertex="1" parent="1">
          <mxGeometry x="320" y="197" width="210" height="30" as="geometry" />
        </mxCell>
        <mxCell id="msXrQutdEgU7XMJ9eGrg-13" value="" style="group" vertex="1" connectable="0" parent="1">
          <mxGeometry x="290" y="6" width="270" height="50" as="geometry" />
        </mxCell>
        <mxCell id="msXrQutdEgU7XMJ9eGrg-11" value="" style="rounded=0;whiteSpace=wrap;html=1;fillColor=#dae8fc;strokeColor=#6c8ebf;" vertex="1" parent="msXrQutdEgU7XMJ9eGrg-13">
          <mxGeometry width="270" height="50" as="geometry" />
        </mxCell>
        <mxCell id="msXrQutdEgU7XMJ9eGrg-7" value="React/Vue/Angular&lt;br&gt;Single Page Application" style="text;html=1;strokeColor=none;fillColor=none;align=center;verticalAlign=middle;whiteSpace=wrap;rounded=0;" vertex="1" parent="msXrQutdEgU7XMJ9eGrg-13">
          <mxGeometry x="50" y="10" width="150" height="30" as="geometry" />
        </mxCell>
        <mxCell id="msXrQutdEgU7XMJ9eGrg-19" value="" style="rounded=1;whiteSpace=wrap;html=1;dashed=1;" vertex="1" parent="1">
          <mxGeometry x="722" y="30" width="121" height="153" as="geometry" />
        </mxCell>
        <mxCell id="msXrQutdEgU7XMJ9eGrg-14" value="" style="shape=image;html=1;verticalAlign=top;verticalLabelPosition=bottom;labelBackgroundColor=#ffffff;imageAspect=0;aspect=fixed;image=https://cdn1.iconfinder.com/data/icons/seo-and-web-development-6/32/Web_website_favorite_site_star-128.png" vertex="1" parent="1">
          <mxGeometry x="726" y="37" width="110" height="110" as="geometry" />
        </mxCell>
        <mxCell id="msXrQutdEgU7XMJ9eGrg-18" value="" style="rounded=1;whiteSpace=wrap;html=1;dashed=1;" vertex="1" parent="1">
          <mxGeometry x="592" y="30" width="121" height="153" as="geometry" />
        </mxCell>
        <mxCell id="msXrQutdEgU7XMJ9eGrg-15" value="" style="shape=image;html=1;verticalAlign=top;verticalLabelPosition=bottom;labelBackgroundColor=#ffffff;imageAspect=0;aspect=fixed;image=https://cdn1.iconfinder.com/data/icons/seo-and-web-development-6/32/Web_website_favorite_site_star-128.png" vertex="1" parent="1">
          <mxGeometry x="597" y="37" width="110" height="110" as="geometry" />
        </mxCell>
        <mxCell id="msXrQutdEgU7XMJ9eGrg-16" value="Shopping Cart App" style="text;html=1;align=center;verticalAlign=middle;resizable=0;points=[];autosize=1;strokeColor=none;fillColor=none;" vertex="1" parent="1">
          <mxGeometry x="719" y="131" width="120" height="30" as="geometry" />
        </mxCell>
        <mxCell id="msXrQutdEgU7XMJ9eGrg-17" value="Product Listing App" style="text;html=1;align=center;verticalAlign=middle;resizable=0;points=[];autosize=1;strokeColor=none;fillColor=none;" vertex="1" parent="1">
          <mxGeometry x="587" y="131" width="130" height="30" as="geometry" />
        </mxCell>
        <mxCell id="msXrQutdEgU7XMJ9eGrg-20" value="Major Feature#1" style="text;html=1;align=center;verticalAlign=middle;resizable=0;points=[];autosize=1;strokeColor=none;fillColor=none;" vertex="1" parent="1">
          <mxGeometry x="597" y="6" width="110" height="30" as="geometry" />
        </mxCell>
        <mxCell id="msXrQutdEgU7XMJ9eGrg-21" value="Major Feature#1" style="text;html=1;align=center;verticalAlign=middle;resizable=0;points=[];autosize=1;strokeColor=none;fillColor=none;" vertex="1" parent="1">
          <mxGeometry x="719" y="6" width="110" height="30" as="geometry" />
        </mxCell>
      </root>
    </mxGraphModel>
  </diagram>
  <diagram name="Webpack " id="f_ubU6b-C9NsZ_72Fe37">
    <mxGraphModel dx="989" dy="528" grid="1" gridSize="10" guides="1" tooltips="1" connect="1" arrows="1" fold="1" page="1" pageScale="1" pageWidth="850" pageHeight="1100" math="0" shadow="0">
      <root>
        <mxCell id="0" />
        <mxCell id="1" parent="0" />
        <mxCell id="PlugJkCY-pkuOAztnRj7-26" value="" style="group;movable=0;resizable=0;rotatable=0;deletable=0;editable=0;locked=1;connectable=0;" parent="1" vertex="1" connectable="0">
          <mxGeometry x="91" y="25" width="651" height="275" as="geometry" />
        </mxCell>
        <mxCell id="PlugJkCY-pkuOAztnRj7-1" value="&lt;font style=&quot;font-size: 16px;&quot;&gt;Dependency&lt;/font&gt;" style="rounded=0;whiteSpace=wrap;html=1;fillColor=#dae8fc;strokeColor=#6c8ebf;container=0;movable=0;resizable=0;rotatable=0;deletable=0;editable=0;locked=1;connectable=0;" parent="PlugJkCY-pkuOAztnRj7-26" vertex="1">
          <mxGeometry y="6" width="120" height="60" as="geometry" />
        </mxCell>
        <mxCell id="PlugJkCY-pkuOAztnRj7-2" value="&lt;font style=&quot;font-size: 16px;&quot;&gt;Dependency&lt;/font&gt;" style="rounded=0;whiteSpace=wrap;html=1;fillColor=#dae8fc;strokeColor=#6c8ebf;container=0;movable=0;resizable=0;rotatable=0;deletable=0;editable=0;locked=1;connectable=0;" parent="PlugJkCY-pkuOAztnRj7-26" vertex="1">
          <mxGeometry y="96" width="120" height="60" as="geometry" />
        </mxCell>
        <mxCell id="PlugJkCY-pkuOAztnRj7-3" value="&lt;font style=&quot;font-size: 16px;&quot;&gt;Dependency&lt;/font&gt;" style="rounded=0;whiteSpace=wrap;html=1;fillColor=#dae8fc;strokeColor=#6c8ebf;container=0;movable=0;resizable=0;rotatable=0;deletable=0;editable=0;locked=1;connectable=0;" parent="PlugJkCY-pkuOAztnRj7-26" vertex="1">
          <mxGeometry y="186" width="120" height="60" as="geometry" />
        </mxCell>
        <mxCell id="PlugJkCY-pkuOAztnRj7-4" value="&lt;font style=&quot;font-size: 16px;&quot;&gt;index.js&lt;/font&gt;" style="rounded=0;whiteSpace=wrap;html=1;fillColor=#dae8fc;strokeColor=#6c8ebf;container=0;movable=0;resizable=0;rotatable=0;deletable=0;editable=0;locked=1;connectable=0;" parent="PlugJkCY-pkuOAztnRj7-26" vertex="1">
          <mxGeometry x="170" y="86" width="100" height="80" as="geometry" />
        </mxCell>
        <mxCell id="PlugJkCY-pkuOAztnRj7-5" value="&lt;b&gt;&lt;font style=&quot;font-size: 16px;&quot;&gt;Webpack&lt;/font&gt;&lt;/b&gt;" style="rounded=0;whiteSpace=wrap;html=1;fillColor=#ffe6cc;strokeColor=#d79b00;container=0;movable=0;resizable=0;rotatable=0;deletable=0;editable=0;locked=1;connectable=0;" parent="PlugJkCY-pkuOAztnRj7-26" vertex="1">
          <mxGeometry x="310" y="54" width="120" height="140" as="geometry" />
        </mxCell>
        <mxCell id="PlugJkCY-pkuOAztnRj7-7" value="" style="endArrow=classic;html=1;rounded=0;exitX=1;exitY=0.5;exitDx=0;exitDy=0;entryX=0;entryY=0.5;entryDx=0;entryDy=0;movable=0;resizable=0;rotatable=0;deletable=0;editable=0;locked=1;connectable=0;" parent="PlugJkCY-pkuOAztnRj7-26" source="PlugJkCY-pkuOAztnRj7-2" target="PlugJkCY-pkuOAztnRj7-4" edge="1">
          <mxGeometry width="50" height="50" relative="1" as="geometry">
            <mxPoint x="270" y="76" as="sourcePoint" />
            <mxPoint x="320" y="26" as="targetPoint" />
          </mxGeometry>
        </mxCell>
        <mxCell id="PlugJkCY-pkuOAztnRj7-8" value="" style="endArrow=none;html=1;rounded=0;exitX=1;exitY=0.5;exitDx=0;exitDy=0;movable=0;resizable=0;rotatable=0;deletable=0;editable=0;locked=1;connectable=0;" parent="PlugJkCY-pkuOAztnRj7-26" source="PlugJkCY-pkuOAztnRj7-1" target="PlugJkCY-pkuOAztnRj7-3" edge="1">
          <mxGeometry width="50" height="50" relative="1" as="geometry">
            <mxPoint x="270" y="76" as="sourcePoint" />
            <mxPoint x="140" y="216" as="targetPoint" />
            <Array as="points">
              <mxPoint x="140" y="36" />
              <mxPoint x="140" y="66" />
              <mxPoint x="140" y="216" />
            </Array>
          </mxGeometry>
        </mxCell>
        <mxCell id="PlugJkCY-pkuOAztnRj7-9" value="" style="endArrow=classic;html=1;rounded=0;exitX=1;exitY=0.5;exitDx=0;exitDy=0;entryX=0;entryY=0.5;entryDx=0;entryDy=0;movable=0;resizable=0;rotatable=0;deletable=0;editable=0;locked=1;connectable=0;" parent="PlugJkCY-pkuOAztnRj7-26" target="PlugJkCY-pkuOAztnRj7-5" edge="1">
          <mxGeometry width="50" height="50" relative="1" as="geometry">
            <mxPoint x="270" y="123.71000000000001" as="sourcePoint" />
            <mxPoint x="320" y="123.71000000000001" as="targetPoint" />
          </mxGeometry>
        </mxCell>
        <mxCell id="PlugJkCY-pkuOAztnRj7-12" value="Combines many JS files into one single file" style="text;html=1;align=center;verticalAlign=middle;resizable=0;points=[];autosize=1;strokeColor=none;fillColor=none;container=0;movable=0;rotatable=0;deletable=0;editable=0;locked=1;connectable=0;" parent="PlugJkCY-pkuOAztnRj7-26" vertex="1">
          <mxGeometry x="215" y="204" width="250" height="30" as="geometry" />
        </mxCell>
        <mxCell id="PlugJkCY-pkuOAztnRj7-20" value="" style="rounded=0;whiteSpace=wrap;html=1;fillColor=#ffe6cc;strokeColor=#d79b00;movable=0;resizable=0;rotatable=0;deletable=0;editable=0;locked=1;connectable=0;" parent="PlugJkCY-pkuOAztnRj7-26" vertex="1">
          <mxGeometry x="471" width="180" height="234" as="geometry" />
        </mxCell>
        <mxCell id="PlugJkCY-pkuOAztnRj7-10" value="" style="endArrow=classic;html=1;rounded=0;entryX=0;entryY=0.5;entryDx=0;entryDy=0;movable=0;resizable=0;rotatable=0;deletable=0;editable=0;locked=1;connectable=0;" parent="PlugJkCY-pkuOAztnRj7-26" target="PlugJkCY-pkuOAztnRj7-24" edge="1">
          <mxGeometry width="50" height="50" relative="1" as="geometry">
            <mxPoint x="431" y="123" as="sourcePoint" />
            <mxPoint x="470.01" y="123.14999999999998" as="targetPoint" />
          </mxGeometry>
        </mxCell>
        <mxCell id="PlugJkCY-pkuOAztnRj7-22" value="" style="endArrow=none;html=1;rounded=0;entryX=0.994;entryY=0.309;entryDx=0;entryDy=0;entryPerimeter=0;exitX=0.013;exitY=0.311;exitDx=0;exitDy=0;exitPerimeter=0;movable=0;resizable=0;rotatable=0;deletable=0;editable=0;locked=1;connectable=0;" parent="PlugJkCY-pkuOAztnRj7-26" source="PlugJkCY-pkuOAztnRj7-20" target="PlugJkCY-pkuOAztnRj7-20" edge="1">
          <mxGeometry width="50" height="50" relative="1" as="geometry">
            <mxPoint x="451" y="84" as="sourcePoint" />
            <mxPoint x="501" y="34" as="targetPoint" />
          </mxGeometry>
        </mxCell>
        <mxCell id="PlugJkCY-pkuOAztnRj7-23" value="&lt;font style=&quot;font-size: 16px;&quot;&gt;Webpack Dev Server&lt;/font&gt;" style="text;html=1;strokeColor=none;fillColor=none;align=center;verticalAlign=middle;whiteSpace=wrap;rounded=0;movable=0;resizable=0;rotatable=0;deletable=0;editable=0;locked=1;connectable=0;" parent="PlugJkCY-pkuOAztnRj7-26" vertex="1">
          <mxGeometry x="491" y="13" width="140" height="34" as="geometry" />
        </mxCell>
        <mxCell id="PlugJkCY-pkuOAztnRj7-24" value="main.js" style="rounded=0;whiteSpace=wrap;html=1;fillColor=#dae8fc;strokeColor=#6c8ebf;movable=0;resizable=0;rotatable=0;deletable=0;editable=0;locked=1;connectable=0;" parent="PlugJkCY-pkuOAztnRj7-26" vertex="1">
          <mxGeometry x="511" y="96" width="100" height="54" as="geometry" />
        </mxCell>
        <mxCell id="PlugJkCY-pkuOAztnRj7-25" value="Makes output easily&lt;br&gt;&amp;nbsp;available to the browser" style="text;html=1;align=center;verticalAlign=middle;resizable=0;points=[];autosize=1;strokeColor=none;fillColor=none;movable=0;rotatable=0;deletable=0;editable=0;locked=1;connectable=0;" parent="PlugJkCY-pkuOAztnRj7-26" vertex="1">
          <mxGeometry x="479" y="235" width="150" height="40" as="geometry" />
        </mxCell>
      </root>
    </mxGraphModel>
  </diagram>
</mxfile>
